<svg width="20" height="13" viewBox="0 0 20 13" fill="none" xmlns="http://www.w3.org/2000/svg">
<path fill-rule="evenodd" clip-rule="evenodd" d="M19.7478 6.6029C19.7478 6.41964 19.6762 6.24389 19.5488 6.1143C19.4214 5.98472 19.2486 5.91192 19.0684 5.91192L3.04351 5.91192L7.31979 1.56425C7.38296 1.50001 7.43307 1.42374 7.46726 1.3398C7.50145 1.25586 7.51904 1.16589 7.51904 1.07503C7.51904 0.984179 7.50145 0.894213 7.46726 0.810273C7.43307 0.726333 7.38296 0.650063 7.31979 0.585818C7.25662 0.521574 7.18163 0.470612 7.09909 0.435843C7.01656 0.401074 6.9281 0.383179 6.83876 0.383179C6.74943 0.383179 6.66097 0.401074 6.57843 0.435843C6.49589 0.470612 6.4209 0.521574 6.35773 0.585818L0.922353 6.11369C0.859081 6.17787 0.808882 6.25412 0.77463 6.33807C0.740378 6.42202 0.722748 6.51201 0.722748 6.6029C0.722748 6.69379 0.740378 6.78378 0.77463 6.86773C0.808882 6.95168 0.859081 7.02793 0.922353 7.09212L6.35773 12.62C6.4209 12.6842 6.49589 12.7352 6.57843 12.77C6.66097 12.8047 6.74943 12.8226 6.83876 12.8226C6.9281 12.8226 7.01656 12.8047 7.09909 12.77C7.18163 12.7352 7.25662 12.6842 7.31979 12.62C7.38296 12.5557 7.43307 12.4795 7.46726 12.3955C7.50145 12.3116 7.51904 12.2216 7.51904 12.1308C7.51904 12.0399 7.50145 11.9499 7.46726 11.866C7.43307 11.7821 7.38296 11.7058 7.31979 11.6416L3.04351 7.29388L19.0684 7.29388C19.2486 7.29388 19.4214 7.22109 19.5488 7.0915C19.6762 6.96192 19.7478 6.78616 19.7478 6.6029Z" fill="white"/>
</svg>
