<svg width="30" height="30" viewBox="0 0 30 30" fill="none" xmlns="http://www.w3.org/2000/svg">
<g clip-path="url(#clip0_144_405)">
<rect x="0.578392" y="12.7522" width="17.0737" height="17.0738" fill="#7595FD"/>
<path d="M24.3597 4.21524C23.5513 4.21588 22.7762 4.53731 22.2045 5.10895C21.6329 5.68058 21.3115 6.4557 21.3108 7.26412C21.3108 7.6995 21.4059 8.11293 21.5718 8.48977L19.1876 11.1716C18.3776 10.6125 17.4168 10.3131 16.4326 10.313C15.5301 10.313 14.6959 10.5764 13.9703 11.0033L11.197 8.23123L11.169 8.25928C11.408 7.77389 11.5544 7.23363 11.5544 6.65434C11.5544 5.93073 11.3398 5.22337 10.9378 4.6217C10.5358 4.02004 9.96436 3.5511 9.29582 3.27418C8.62729 2.99727 7.89166 2.92481 7.18195 3.06598C6.47224 3.20715 5.82032 3.55561 5.30865 4.06728C4.79698 4.57895 4.44852 5.23086 4.30735 5.94058C4.16618 6.65029 4.23864 7.38592 4.51555 8.05445C4.79247 8.72299 5.26141 9.29439 5.86307 9.69641C6.46474 10.0984 7.1721 10.313 7.89572 10.313C8.475 10.313 9.01405 10.1667 9.50065 9.92763L9.4726 9.95568L12.2459 12.7277C11.7978 13.4717 11.5589 14.3228 11.5544 15.1912C11.5544 16.4071 12.0178 17.5072 12.7556 18.3633L9.61285 21.5048C9.2606 21.3639 8.88491 21.2906 8.50549 21.289C6.82495 21.289 5.45661 22.6561 5.45661 24.3379C5.45661 26.0196 6.82495 27.3868 8.50549 27.3868C10.186 27.3868 11.5544 26.0196 11.5544 24.3379C11.5544 23.9464 11.4739 23.5744 11.3385 23.2293L14.7996 19.7682C15.313 19.9511 15.857 20.0694 16.4326 20.0694C19.1229 20.0694 21.3108 17.8816 21.3108 15.1912C21.3108 14.4156 21.112 13.6924 20.7888 13.0399L23.3706 10.1337C23.6828 10.2411 24.0121 10.313 24.3597 10.313C26.0415 10.313 27.4086 8.94589 27.4086 7.26412C27.4086 5.58236 26.0415 4.21524 24.3597 4.21524ZM16.4326 17.6303C15.0874 17.6303 13.9935 16.5364 13.9935 15.1912C13.9935 13.8461 15.0874 12.7521 16.4326 12.7521C17.7778 12.7521 18.8717 13.8461 18.8717 15.1912C18.8717 16.5364 17.7778 17.6303 16.4326 17.6303Z" fill="white"/>
</g>
<defs>
<clipPath id="clip0_144_405">
<rect width="29.2693" height="29.2693" fill="white" transform="translate(0.578392 0.556595)"/>
</clipPath>
</defs>
</svg>
